<mxfile host="65bd71144e">
    <diagram id="-5FRfy8T26CGat9XMKcr" name="Page-1">
        <mxGraphModel dx="2160" dy="1260" grid="0" gridSize="10" guides="1" tooltips="1" connect="1" arrows="1" fold="1" page="0" pageScale="1" pageWidth="850" pageHeight="1100" background="#FFE6CC" math="0" shadow="0">
            <root>
                <mxCell id="0"/>
                <mxCell id="1" parent="0"/>
                <mxCell id="31" value="AWS Cloud" style="sketch=0;outlineConnect=0;gradientColor=none;html=1;whiteSpace=wrap;fontSize=12;fontStyle=0;shape=mxgraph.aws4.group;grIcon=mxgraph.aws4.group_aws_cloud;strokeColor=#AAB7B8;fillColor=none;verticalAlign=top;align=left;spacingLeft=30;fontColor=#AAB7B8;dashed=0;" vertex="1" parent="1">
                    <mxGeometry x="-303" y="260" width="1368" height="847" as="geometry"/>
                </mxCell>
                <mxCell id="32" value="VPC" style="sketch=0;outlineConnect=0;gradientColor=none;html=1;whiteSpace=wrap;fontSize=12;fontStyle=0;shape=mxgraph.aws4.group;grIcon=mxgraph.aws4.group_vpc;strokeColor=#66B2FF;fillColor=none;verticalAlign=top;align=left;spacingLeft=30;fontColor=#B6BABF;dashed=0;" vertex="1" parent="1">
                    <mxGeometry x="-185" y="501" width="1002" height="306" as="geometry"/>
                </mxCell>
                <mxCell id="33" value="Public subnet" style="points=[[0,0],[0.25,0],[0.5,0],[0.75,0],[1,0],[1,0.25],[1,0.5],[1,0.75],[1,1],[0.75,1],[0.5,1],[0.25,1],[0,1],[0,0.75],[0,0.5],[0,0.25]];outlineConnect=0;gradientColor=none;html=1;whiteSpace=wrap;fontSize=12;fontStyle=0;container=1;pointerEvents=0;collapsible=0;recursiveResize=0;shape=mxgraph.aws4.group;grIcon=mxgraph.aws4.group_security_group;grStroke=0;strokeColor=#248814;fillColor=#E9F3E6;verticalAlign=top;align=left;spacingLeft=30;fontColor=#248814;dashed=0;" vertex="1" parent="1">
                    <mxGeometry x="-134" y="579" width="334" height="149" as="geometry"/>
                </mxCell>
                <mxCell id="34" value="Application Load Balancer" style="sketch=0;outlineConnect=0;fontColor=#232F3E;gradientColor=none;strokeColor=#ffffff;fillColor=#232F3E;dashed=0;verticalLabelPosition=middle;verticalAlign=bottom;align=center;html=1;whiteSpace=wrap;fontSize=10;fontStyle=1;spacing=3;shape=mxgraph.aws4.productIcon;prIcon=mxgraph.aws4.application_load_balancer;" vertex="1" parent="33">
                    <mxGeometry x="18" y="32" width="80" height="110" as="geometry"/>
                </mxCell>
                <mxCell id="36" style="edgeStyle=none;html=1;strokeColor=#333333;fontColor=#1A1A1A;" edge="1" parent="1" source="35" target="34">
                    <mxGeometry relative="1" as="geometry"/>
                </mxCell>
                <mxCell id="35" value="" style="sketch=0;points=[[0,0,0],[0.25,0,0],[0.5,0,0],[0.75,0,0],[1,0,0],[0,1,0],[0.25,1,0],[0.5,1,0],[0.75,1,0],[1,1,0],[0,0.25,0],[0,0.5,0],[0,0.75,0],[1,0.25,0],[1,0.5,0],[1,0.75,0]];outlineConnect=0;fontColor=#232F3E;gradientColor=#4AB29A;gradientDirection=north;fillColor=#116D5B;strokeColor=#ffffff;dashed=0;verticalLabelPosition=bottom;verticalAlign=top;align=center;html=1;fontSize=12;fontStyle=0;aspect=fixed;shape=mxgraph.aws4.resourceIcon;resIcon=mxgraph.aws4.desktop_and_app_streaming;" vertex="1" parent="1">
                    <mxGeometry x="-537" y="627" width="78" height="78" as="geometry"/>
                </mxCell>
                <mxCell id="44" style="edgeStyle=none;html=1;strokeColor=#333333;fontColor=#1A1A1A;startArrow=none;" edge="1" parent="1" source="51" target="43">
                    <mxGeometry relative="1" as="geometry"/>
                </mxCell>
                <mxCell id="38" value="Amazon ECS" style="sketch=0;outlineConnect=0;fontColor=#232F3E;gradientColor=none;strokeColor=#ffffff;fillColor=#232F3E;dashed=0;verticalLabelPosition=middle;verticalAlign=bottom;align=center;html=1;whiteSpace=wrap;fontSize=10;fontStyle=1;spacing=3;shape=mxgraph.aws4.productIcon;prIcon=mxgraph.aws4.ecs;" vertex="1" parent="1">
                    <mxGeometry x="231" y="871" width="80" height="100" as="geometry"/>
                </mxCell>
                <mxCell id="39" style="edgeStyle=none;html=1;strokeColor=#333333;fontColor=#1A1A1A;" edge="1" parent="1" source="34" target="38">
                    <mxGeometry relative="1" as="geometry">
                        <Array as="points">
                            <mxPoint x="-76" y="921"/>
                        </Array>
                    </mxGeometry>
                </mxCell>
                <mxCell id="40" value="/" style="sketch=0;outlineConnect=0;fontColor=#232F3E;gradientColor=none;fillColor=#D45B07;strokeColor=none;dashed=0;verticalLabelPosition=bottom;verticalAlign=top;align=center;html=1;fontSize=12;fontStyle=0;aspect=fixed;pointerEvents=1;shape=mxgraph.aws4.ecs_task;" vertex="1" parent="1">
                    <mxGeometry x="301" y="956" width="37" height="48" as="geometry"/>
                </mxCell>
                <mxCell id="43" value="" style="shape=image;verticalLabelPosition=bottom;labelBackgroundColor=default;verticalAlign=top;aspect=fixed;imageAspect=0;image=data:image/png,iVBORw0KGgoAAAANSUhEUgAAAKAAAABtCAYAAAAmuWpHAAAAAXNSR0IArs4c6QAAAARnQU1BAACxjwv8YQUAAAAJcEhZcwAADsMAAA7DAcdvqGQAAFW+SURBVHhe7b0HnFzVeTb+zJ2507fvqq16QQ0QAkn0YrrBBkPcjW2wP2I7xkkcf0nsFJfEsRMn/udLYifuNbGxARuMwRgw2PQmEBIIVJCE6vY6febO/J/n3Lm7s7MjadTA5Mc7e/a2U9/znLece+69vsXHXVVCFVmWVd6rJEWbFPWIyefzlffqJ1OTcjKvRt6xR746q+rzeW0tJ1DCUolHphT3nEdWfXWtkdKQZdIfens9KrKqxRrJa/HQV1WOKZmVqo6pc8q3Vn1rka8mNmoROVhHJ9Sb2yGRGFIdJjf995hY1dptePWp/np5PK8jmNFbXygVCayq4GP66p8bfzJV1/2YAPB1eg2ShNXhhiOg1wH4Oh0STZSHFYFAnBB4rh56HYD/q2kSTCaGQ1C9Cvv/Tb5aL70OwP+1NBE8Y2DT1gvVceoJlenHAmFUfc7EPzj5liz+g0lavLZdq2iTohpDsppK9CInE8dFfXWqSab0ivS1SvCu++kqWiaGw3M0lEt+7tsoFoNwikAg4EehlGWV8rADQWQzadh2gF5qCU4pD3+AxnapAMuvbQm5fJ7X/FQtEW4d+PwF5leEU7DZqpBKZF4OQ46B17QvKsYZbPfYn+CWZWrMl4I8r3Q04E1ElmO2JJ7Qvserie3UyfKFCqrZB9XnmNHkWOM0sZwDUI1MLM0kTCrO/VVTdXJL9awOx4SOQr5qjhdqkWd/iNS1JQGjFOCRBL2AmEOQfU9ImYYH/EEkUhmE400gFJFzbPiDzcgVgsgRICnixbFsWCEC12RuEcAOgZznvmMA6zJN+QuE2i9XwlRE5wlAAc7Ug0GDwQwIr9MUrxax/syvMuic+7+OICFQGdT+A/zcehwksE01fzXOizx1XPmrqKEJ/o72ZZ/l3mFTrdFXkxivzpj7pUoJeCAqWkUUWV6xFCLvI0znZ6Bks1M8N8SQQpBS0FcIoBgOYzRbJPBasGjRaszoPJESrh2pVMgAMl+kLGX6AJFbyDgErWRrCXlKRYFcknFiwwgsA7Iy4AwIdY4SrxRmiDBIKqpDKU3HgFqmcl6Gr1Xt9bqwmurugyOl/RRzJOX7li6ZrIJrk6JNjlpT/JsRV0WMdyRsUo61JmFrUTGQYFzq2kIbQdbCci0KqSSFVC/BNGzULgoEg9OIAQJjxryVWDBrDaL2Ap5vhUWkO/kiegY2oqvvaQwnNlENdyHEdvkJGKlhqW+Halztt3wCmiQdK2jqyNpq36JKhtS1Tgl8XhxPXecZnccE7BjHdKgN81XUSk66822TqWYflMNRpar6eFT7xkV99L8IgOMXS36CjZ1ccpqZKObW3MpSMg5RulE6OmGCrBXtrcdh7pLzEIx0sHNtZNNFFHJFBKmaG+INcJwM8tkECoUUcrkR7N71IIYG+pFKJCgxHdjhFO3ENHMnoAy4GMaIUtA/xN5hXWgvohh1g5GKLoDVKlNrSssxjvGE9l8H4CSq3aRXB4AHzslihytGkR0mbehQJRfoHJSoPtPZECKReVgw/0zMnbWaYKTtR5DlC0PY8PyD2Ld3M6ZMacGUtqmYNW0xYqHpxDLBmLcQiu9FJuWgv2cIXT0vYzDxLIHdi4BNaSZnQ2qW5KP0NSyQ42Fl3LoUohwQMXaWnCGZA1ThdHhcCVgNQAJzvwBUbhOpRheYdEpfD9drO401SPWpUZjqevBSPJoY85gA8OgTO4P/61XBAYednaeqpIQqRZIYyQ7BjrfSpmvBrLnnY/qMswiEuSgVadtltmHPzoewY9dawrYLdnCUORA0vOZ3WhEPzsO01uVoa52HQMRGONiJYj7K9Hls3fVLbN/9W9ihJMFByVYMs6aUdlSveSeFcLiBgOVhKYqG2HSq6phhYTI1SC+8H77AKPyUyAeXgO5/GhLmVw+ZFOob/o15qTzpOQiVVNTUQD2k7GpIu2JReU7M14CyBjYmnGOS31MATs5TJdcLwBIZGg4HkcpRslk+2NF2FKypWH3a1bAjc5DMBhEgOLp6e7Hn2X9DdnA9YvEIHQwf0slRM03jZ6cFAxFKPpZLMy7gjyIQXYyOltMxo/1ExONxbH75Jmx5+U6EIqNGhfsIQGPz0QSw6PAMdbejJXYy5nauwYwZc2l7BpDNZ5HlgHhp52PoH13Hpo4QzBWcZRu1PxGALo0DcHI/VJOJob7h37EGoCtAq/Jl2SqymqrxMjm3V41UMS8cGeXsIhL0M5JWA+yGZViy/K047w0fQpDSzOeLUEalKQ33UgLtQTbZj+ZYo5k7LKRziATDCPlt2FaAdl+WbHXMvGC+mMFQahNe2PIobckcHI56zQ8KrG7Pst4lFyI6zhfSaIjOw7KFl2B6xypK2wBGE4PmeijYjkVzz0RT9DgCXHbhodLR49XRIINzAa4ylK8djF5lAB4bRub9cXRnoph9wkW4+C0fQ/O04wmaKCXfIH734C3o7qbEC2UQpBfr5/DNEXg2PdmQHYRTcMxcn/BkJqLp9fIMwUrHIbgX/nA/LyQIPqpdf4lSWRPPkiBqg9jJQCA6jg/T2hejuXEuzwXQ3b8eT62/Cc9u/BWSyUHY/g4sWXAWwnYHrx8JHRseHgpNAl851EOvEgAPg2GHEL152sk477JPYe7SKzGYjiBRTGHdlrtw7yP/iv6RB6hau1EYTSJemEYGpOnRDlHCDVEqZmAFgpRfIR4LRwQi1WnJ7qd/sQ++yD7A7qH6TjFNgepIc4EMBoAiVlK3pQi4AO29WZ2LjH2Uze/F+s0/QiH8CIayD2Hn3meQz1BT+6YhGprmJj0qdBh8fZXpFQSgx5zaDJIF4QXZegoUIvRg3bA/K6XSg5N9UywWEW+ZjmDrdBRsB31bb8O6X/8zBl74NVqdETTRBgvozkS0BTl6qFaIYEEjgoVWIw0dmxJRHiqvBfMJRAsxlHLNyJaoplPTqZ7pbPjTRqI6dCBK9HwtJwI/HRfLGiZHs6yIDavUQAkapJTMIJnrodNBKRvNougfQjqTpIqfQduyhFiDzWust6k/G0x7zV0kSylCMVwZXKrklBtKJdWjnAOjaVrEosfvo/2rY+XuxtFdnMlBOdcVDKv3X/6EoDKZwCxKVXOoTRCgZtDtzorwCgDQq/7BSTw2QfvuqbH9Mf7XQY46zA6hf3gAG9c9AF+2j/YWeVAqwCZA1ZmOz08QOZROeVDrsoZBdlqIx3Qj6JX6fAQp4wr9tp/eK69ZxRi1rebxWCNeN+yT90tAl/30cn0tJi3Q2UiY231B/xSWfyaSAwvpoS/F1I5lxrEJhR0MjexVlV2q0Uad8sJBqWakg6f2YhwsGKp1oUYQHwzp2NsaQPJaRTiGADQluruvMBWcAj27PJ2OAG2xEj3iCB2ABK/IphNUGDj6vHuYdBPd+xUEleVvpuRoRbZArzgYN9IpX8iZPHVvuVRWsT4C2Kc7IAIr2eiOZQKfW03F+KwUXtz8BPcyiEamYtWy9+P4eX+I5Qveham0DUMcEN39zyKZ6VLJrwDtvz/cQXPwcCzoGADw1QOeSCpH92vzeXmqBUrDIgqUZBa9WgMg1c3oEgbZbuSAUfk8X6Akm9K5FNNnroAdmk4QBnjeIhCppm2CjaBzCMCiQOgB2eTkgk/BHPsc2olpjGY3Yvve+5Er7eMgaEbnlNPQGJ+HsMA3+Dh2dv+WZXczxStJbj0ryUgjbQ8WJiY7KnQUATi5YceaTIn855XslV6kqvWZ+62EhuWnBCvCb2uOThJKsHHY8Jyx24JBm1wgYGkL5YoWli4/AyesOB8tbQuMKnZJS68oI+WUUFbK81Vn6H6zwFYqe8LuvuKwlAJtwEAK23bfiy27bsVQcjMsO4FMvhvPbb4Hz7/0a6SyuosiiTle91eOXp1Sq+koAPCVbYhXWmWJcvld68s9q4fPzJo+Sr4iJaCRfpqtpzr1EZx+gi/okzOSQD6Xobq0CFCCjR5wATGkcxF6xHQy9LiYVDXTSKo6dCSKPnm9ZTAaIJZBZ4JAKGfAppfbwjqEYIcz2Nu3Dr1D25DOjhqV/PKe9azggKmv5Quz/nI8NDj081rh7Y0H9/xkGpv6UIz9RRLp8qRQlt78mxiYm5yYimAS1EkmppK4/9xjc8Sf8i6HIwSgm+2xJpXihWoyDSJzBDZdl1csD0xr9TSPl6fkEsA02+/Q4QhT4oQsgrCUREOIUrCcaaFIYPEgR7XrlKgj6eUKSvRCmCkBx/RygAVCBWLaSC+Lnp3pGHWQ7hKYDrWZL71qK4K8kyUo04xHb5PSmLVAMExA6/Ydo+p2oB7XdDvEFGjIZFcOOl95rZqM18swBsL9kspQvMpQNht4bUzVmqgVBZeDB5p6Av+Zukw4VhhrqxsOE4DM0IRjR14JdZVCjplGml2ykqrXL2SVbT2z6pYSMBqkk+FksGXDU7jnFzfiyQfupGerNXnsCMuVXj4/7UQtGNAaQgJVK5wtSVHqXOOIMI4/ICD5kM3JxlQ5WgVDr9msjqaqF+D9fUyfZnytpnaBZEiroin9SsG99F96GSdVvrB/UlIvHFt6ZUqppMMA4LGt4CGzgJGLUq0EmfFoBUaNMn9ZejAKhSEbWjRLq4JUlYFSGv7CMAKFIYQEPnohWsFS1Po+vwtaBfnGtA65JQApqXR3w6JUc4q2kTj+QJwSN8IQZYhRmjGUdC5k5v+KWuzgb+IxQSlgS0VblIhaLmZpib5WVrtytl46ZP7UQcYJmRDIy0nn3HC06RABeAxqUCYJqcPJndAhZwQWN7WgYyRUGZR+dnzRcagSfQhxnwoW/mIG8WAJgWKSqpgJKB3lmBSLek5ECpygIFC1sMCAUBKQ9qDlk4QLMk+BjurYsQm6CPOnunZiTM/gxE0o5RspPKcDuRksYzqz1UqYINMxjZZt6XkRp5WhgXkeOqm1h8Ov+unY5u5RnUvy918ZT/UdNtXg5ITDCQcaL15Q2VKvggsdAEqkAjs3R4jFZq9EbPoiZLMZ7Nn4BMHnOhGgnUf3QHiDLXWcG2U62XxKS5/YF8Sc486m+g2it3szMiMbKDGlfuUNU8VS1RYo4ebOO50gakdjSwCzZ85gmI/OWYsxY+YydM48ATM7T8BcbmdMPQPTpx+PeXNXIB6dRxDSuckPYV/XFgSsMIo5rdYOUmJn1BrTJner4aRFDgqst7kkSamBoREjcuOb2F5SQ+WDCecOTLVksBEIJmPXNhSZo0PI16RjAjcbk+FYXh4RgEsIQJ3eXxB528l02AA0ldKOm3d1Cd7lsWjUqf5gHOm8RRVGqSOpRDVXQj8K/hwSBE2h9Tgcd961aF9+PkYobUKRFsxavBQpsnhgqI+cziAQ0G0yNjwnqNpwwhbSvhj8DSdg2ZoPcDsdpUgGu/ufRe/wLth+GxF6qtE8pVc+h5zdjCkLTkfGaoVtNVOqEkS+mcgGliMbmg/HP4uA6uTAaBd34QtM4fUpVNlhgj1JcCewc9dLrAclrjXMgZBm43OGAYKdpblG3YOkxLR8jZSwNtOrwmoF1bqcIpoNzJgbAtTsE0K0YZWJO9GuAcM8XMaNB+pQaQZJ78rgp60iO1lB5ou7ZQptlbRsy5j9OonZuipbiUw65cUdXjCnvbB0yeSXE42TSXlAOmQAVkV374IenLQipegvUl5EqBkJQvUDPdAhJw0n3ozj1pyD2ctPRyHQRolnIZMYJeBKiIUIzHSSfZzEc088jN0vPYeolaMHXEIuNYzRQAzLT74Q06adgEjDTDIti57eF7HhmduRT2xHrFBEuGDTtaCaZad0oxWrLvwQ7MhyjO5dh1TvRnYggUkQF+wEnRzC2gkSAnRgzMNJepyTnaqWlkZpP/Zjz971CARHOKYSrCtVcj7KDhdoCC8tQJTU1XlzS1AODg0EYx7omv70OCglp+lcdZ+YQT6aHnfLNPbwmLQsEw91r3wCMYn70iSXxuw8s3UPNFHvEjXOAdBSScpHUcdAzLy0X736+gAAHCv1gHRIAKwRtV4A+mx2Dg14c68/w04Ot2Mo70frkhNx0nnnI9hCSUQ1myXYtj9zPzY9/SgammfhlDPeiFBjJ1UnJRArsHvb89jywpNIj+7B1NYIFq++iJKyHVF/CIVEAjt4bde2p2i39VG65Yxg8dO79VGiFgoF9FttOO3SP4QdWoptz9yM3ZvuRsROoUCgFO0BBCi9/E6YkJC9KPAp0NExHVCAbTOE5F3ruZUcioUgQdHCuJouoilBEyHAgaVVNEU5RwRbkciXSnava/GAexvQsN6ArJKHHCXmdqFAUNW1PDwyADJuFYD2R0cIwIoSD0J1AfAAUeqWgOy8PCVAY6gBoyMOOmYfj9UXvx1O+yz44zT+86PYuvYBvLT2PgRGt6OQHIATbEc62In4jBOw4szLUAw1o+DkKGWSGO7fg6Y4LUJfE5piEfTveJ5p70Ew2YUYkrDpEWtdYE6VD4bYCX6es9CHJpxywXUIhZei+4U7sPuFXxG8egqPksrfD5u9ZRGAOVuPX8qGI+MNIOTE6LliAY1wK9AECEjqhZGnxPT50wRCkeeLVPtxXosjGtUzJEAmm0QqmWDaDM2OoulQoyLFGAMyBRd0Lk1k+FgHc+fIAaj/Yznul+oFIG3ApVVOSEVpddBBAXiQy2aUKs5Bgt5AYAdaMJDxY8aKM3DFh/8YI5EonIgf/Xu34Mlf/gQDT/8O7SP7UEplEIm3kdnsaKroXG4ITxKYjQ1+tLQ1kzEhBKPTKBXb0RwO4pkH78KW9ffBzu1GjDaaX+sCHU3SRsyqmgLBXwClLyVgmibA7MVrqHanYrRvO4b7dhIwVHl0ToQBPz1ii/ZbQfUukwaZfrLPLEuraLTowZ3C0RKHUiDFhJKGlOzWbMzouACLZr0Fs6aeg/am5WhrWkAUNCOdSjMX9yEnzVtq6sjtZhZcBru5aM6NV6CiKpMAYJJU9qG3a7buwRgoSe5uxYn9UTlKNQCrqQqAB8hYiavCkYJPVKxWE/shS1KEqigph2DWfMw5cQVylFIP/+pmrLv3Z7AG9iBmlkAVkPA3ImU3snUEUYmQoZdp0/sc6d6O5599hl7pIkqwFgyO5PH47d+FNbwFIarcsH+ERr8WmWoiOk5lR4CwDSXaeH5/HkGHXqyvGTMXrgYC0zE6uBP9BKE/6KMjFIJD9apJ7JLFfT9HO8WXcFEKEGR+L0iaE5KUOg7FWNGvx0W1ujpAALZh8fwLMaPtTO63sC4+5HMOgrYejlqMYBjo6d+CYFBziprgls1Y4FZ2YhmAIgLTvfXI/YqgzSRSEnPdjWQAqlDRv5MBKKrYY1tcoI0H/ivvmxgmnqh8aSxUyO3xSLVIV6vDAemgEQ6N2BXm9pnsJi2sDFIXxEsZ9Gx4FKGRLgTpSQ4SoINt87Dyqvdizsmnoy+dR3NjEx3IEXTShmzNDiCW6kFpaBcV3wjy+X6EkrvQ4vSigceW1K7UZChOr5bBTwlrHjonI3XHhFKxmJeXqLcthJAthpAuRjGcC2OQjsRALs7QiMFsEzK5DmTybQytSOdauW1GptBEL76B20Zkuc05ceS47zitSI22ozF2ElqbVxLsTJPfh0ef+RHWbrwZ3X1bEaX50NYyH/F4O9W05jhZLelDIwVF6kqvO8fBVBn4z708idzzJsr4kfl/YBrvZHJo4s9DGPcnknfODRU2YHXEiWQyrJcOIaozxsADk03lp9BLm23WinPwtvdcB2d4ED/6939EcrAfaTuKGaddjBlnXoK2qA/N+UH87NvfQGHvNrSU8oiYZVk+jNgNWP6GN6F16Uqse7kH3bf/J9p9w7QPS/Ri/QSUO9fn8zUYqetHAgHfCL1aSlKnGV1OB1Zf/jHkA4tpnO1BoNCNAO2yPG1DTbMEHJoKBKNf89imbfJQ3Vt6klZuv7qOCRNQSEuKZQnuRhRzdIYItExmCE88928oBZ9iPZIcLCtw4uxPoKk1hw1bfkYpuAmBEKU11bFW+5T0NJ55Io9kPOUsz1H6VoquCpoALUap7NpxG7AMItJkG7CSOBgkAas63bMBq6kaR+UhM/HkEdFRzMqQ8jN5sonkhJ8dqollcSIXCGFfLgi7czne9bFP4fwrrgJNLIIgia3rnkSRki9kS50SVDalDcGXogp3gjEMJNO0AyPstwiPI8iXQsgXbHq+EVpodASQIuhoDxJa0ptFetF5rXhh/lpKnid3w7FGxBvaEaJtGvK3UYVPobqfiqjVQVA2ImA1MbTA9nUwv2kIlKbTkZmOYHEKQweldhttzSmUqjMQjU01k+NaSqZ31zjFJELRPOyI7MM+mhs9bDPVre7GELhyJrTq2uPN5LB/qr7qqsrqUL54UKo7Yk2iBLy6FlAnkSp1UDrEuqhgvbVgv1SRn+3QMnN86A/QCVl1Gt70/usxkC1h26btWNA5y4BGy6y2bNuE5373Wwzv3M5Op91GlW1zmOUKDvIE186REi542/9By5zjsXXfELbf9RVE012IhIQsh9JO0xwOO9qtV5FjVC8n0pDWgoQ+PyXgZR9F0V6KZPcz6N+1luXQgZDUtEZoJwY4AAIEfMYAxX2ew5V4kqg8Kp/TpBCQp8R1pNKtYcSj7Zgz/QQ4mRh27HwMO7voGNlpdHacguM6308A9mDdCzdjaGQTfME++G2WS75owhpFet0ivXOGNm+J5sL+JKBHpuMZxa+7RGXyklSC4sASkFkYCTiRlE8tYFXj6OgB8CCXa5EKljSZRDXyChYs2JRQAwEfOk47FRd98Hr05EoI5PxoojSwhnrw0C9+ii1rH0A8FKFnGoST17IpLT2lDRSN0zmJ4JQ3XIFp81ZgMMH8gi3o2/wbvPDU/SgkRhAtZhCm5InQI/XTvlQNHcJLElQyUZgcsDuw5tLrYYWWYe/WO7B53S8QJUiKWgXjH2IdA/AXCcBwogw8gdcDH5tWbq7A7D6bEkaaaazAKCVlA05deTUl6HIOpgZ6vb1Ip4fREJ1CSTkLaWc91j7/AwSCCeSKvQgEqNbpbNj+BqKEA0hktAMdGz3JVbNTJp4jZyYC0NtWRKvsoZo5HgEAa0zDuJGqwwGp6nLlzErltbHGlYPIlQYVQb/qcwxBqpsY7ZsC3dLInLlYePqp7IQcWgZ6sfW+O3HfT76Dob1bMStEVVlK0JGQNAshlY7AF5+PeavfhOMvehuinYtAR5n55dBYSCI4cwlaF54MK96C/qEhZNIEoE1A0OnQ2NAdDEkrLUigM0swhzF/wUpEfC3Idz2HdNfzaPDTFiOPtAbRX4pRzVKN05sOULoFtCKG9fdrUYOetLO1uibFUKApwYFDsARs2pmS4ARpZjSN5oZmxEKtTNeKhnAngRZEKrMTm3fdSsn6EnstS9BoIjrI9FLbmuLRUjFN6nCf5U1gfJlMX9bwWL3+8PrEUMVJ05/lUCNbN5/qCzXiiRS3kvYLwLqpVoXKW0OHkNWB4hbZuUXbhzQlSnzmbBx/yioO9AJ++I//gm3PPIX2lhi90rQBUEuY9t5wBg47bs6qk3DW1ZdjxpK5tA+LaKSK2vPcU/jl97+JqUEHbdOm0PC3MLejEYtnTUGIIN/18jaqPr2UkpKMnZy3aEOyo1MEViLYgelLzkKR9l7XvhfR3/MSwhQ+umMREDzpc4QcSj3ZqyYQlNrq5Zf5CKxcBKFSC/zc6raiwKJ3GQrA8u5TqWGMjHTTYaJj5OtCqrAFe3ofxO7e32E0swOW8W5IFbwyHu4kmsxMD3DVdChdVCvykQBwXPa+2nQQLuTZpwkCMMca63ZQlLZPE1ViM3nfRImVpgrVE5NWxEYmlUNrvI0WYAnDhVHE24mQYj+6XngMv/zml/HM7T/CNP8INjx2J+656Zvo3fQkAqk+dDSECeAULJtSlIDLWSET8pSkeU3HBAvI+qj+/GnzesFChHIsHECWUiVHxhYo0fS8iEMp5PhiNC8IYs3vUcUVmd4KxFFwtJ4wRK1sMY5sR0pYnvPxnN5b6CfAUtkubN3xIJ7bfBfWbbwNL+2+H6O5F+EL6FVvFXQQnr3ydOgVOjIJuJ9oE07Xk1UdcQoEYC5ImylvoW36LKw8ZTX8dCyeufse2kcZ+OwSRnIJs+pZv9FUFvmwjT20DRvjNh7/zd3Y9tijiIwOoslyECOAMoURqhUHm59bh95d26l2s3hu/bPmMU53Hlfj07OleFQcJfhszF++hoBqwdDANqSSessVgUZPuMiB4LPoEPjaGG8qHJv52CEODNmHDTQZYnSoCULalBnamKOFIQTDIQJQb3LVymyWIb1PIAfDVMdZDipfBqFweTECL7mTzhXEqh2pBBTV0QUu1Yh4JBKwphNyxACsyNGYI2XyTk8usLw9AOUDRUobSpkRCwtXnYF3f+jDyOdy+Prf/C1Sg10INwaQLKURTFNFUfJkiSAraCOby9KpoHpLpgm8kFkXSPmFNAVaIUqHIccdetcCXIBqN09Q6xkSl6mu7Uf5ZaRuA0VsD8G1+s03IBdYRKVL2600YKqfo71WsuhI6LVuhQaWS6nmpyNCz9hHEPnJCF8xSt7QKXISyDi7sXbdXfCl96GhoGX5mi9UUKlSyQQmS9Cks/F0We8AeaA7INVU8+1WlYwvk2nTAfp2Ur/Uoho6c/I8IF0bHtbKr7p8mh5upSpDXVRntINSnfnI9BG4GiyqMgLCF/Ih6adT0kAYsGOyYgwBEqddVSzQwKe0jJADHZSGcV5soOTJUPL081yCAA1FW+HQE5ZjoUWnIUpYy8kjZHGfQNCdlSC94qi/gAABIqdF74zOlqhyhVbGt4N+hOn0hIMRhiglFe06HgeplkMxgIeIUJJFwoxHQ9EOEfBBDgK7gftTcfLqy2nXEfw2VWsoz+rn6V0TZIEchwilbWmQ5SRghzU3qOdLyvZfFZmHknxVQeeqwsH6tvJqNSbGgvKpDvvpxFrpq8m3bGm97wesogO0pW4JeIA8qknvZtYqt0LGwpSTT8bbP34DhgmSn3z1q9j07NP0XG1EqQrbk4SnLVstJ2cR8WAcqbyDDG2xFAFz8mmrsGXji0h29aFNtp4vRTXndqxbnXLtJPl4Qh3nFAgOlp5AK3JtM3HGm65DJj8dvdt+h4Edz2qxFpxSEwE0RK+XMen95piFpQUMtETNgCnq9R0NlGhhtLZ3YuHSJUhnU9i57THs3nY//BwUAT9RzcFQorq1dP/ZzElSurFKui/svo2BcfZHFXyvJQHrIS+LWmAR+bzHCA9C7iKTg8f1d3QcxlvyD5LvhMsHiltfWwwJDJJWhXQesxcvwVmXnIW+xCjOXL0K8xcuwNMbNmA0kUFToBHZ5Cg9W3ql/hASeR/62HlOWzsuu+5anLDmVBRzeQxs342GLAHt1zpDd1LYAIVdUCo6lFK0tQIhjLC8oh3DEG3PhWdfirmnnYkBqsRoPI5031rs2/RbBLP7UEz1AtlNsNI7gPR22qqbaWTuRCmzl8c9KDE46V7kk33o796LjuZpaIxMQWPDNErMqZg9aw3mzzsdLU0LkM/YSLItFOkI2n4Ucrrl5k4s6wm++ugQmFtBXqr9AlAdUQ8p2u81AA9etwlEmJjVJGHacfv6+tE9mMD8+fMRpVHe2tGBk04/HaVIDHt39VNWObTlchig/ZSINGLFhRfjivddh1C80UioYmIYL6x9DAFKv0JAdzpoc7EMs9hSTPMH6SQEMErnIB/pQLRzCVZf8FY0zjgdearOotWCcCmKoS1rERjchzhtMJsSLmBRVVNyyk2g3KTapjqmh2vTw9XgCVhaC6h7vxYG+oEpbSdQbc9AtLkTtj2LYqODDtMcdLTPYdwQhgYH3MFA+8+8AphM2x8wDNXF+ProdQBWUcmmzUc7zJ8jWCiZnn/hRTz68MNoDccwd9FxCDQ1omXePJy88jSkc6N4fP3TmHPyKlx9/Yex6IRT6MXQFqP9fvO3vo5nH3sA6Xwf/C00/fVgOCErVWekH5lWkHtBtzvYMQfHn3MZ5qw8F1bzLIQInF27t4NCCa10WKz+DUjufgFhMzy0CJW2G8Hi0NbUyz/MU3IlrY7mOT3TER5GMZqEHOXu0QSaps6EFbPhj+QwMjqC4ZERZDJJSkWaEh1BJEb2YCTRhRDtQq2mNlRHp7p0iAyuotc0AHVdUWrZfx7RGayflyStoQtQrQYJlhy937CtW14lPPvEE3jxxY2Ix2Nob29HcyyG+UuXYcma03D8GWdgevtUlLJp7Nu+Gbf+97fRv20TosEC4o20ySglIwSVnypVTwBnrTDtyggKsSlYcPJZOOPCN6O5fQbFrw9pSqOXH7oHzz76AE46cSUdBUrA3c+jb882SmYfHRstXM2YuccsrcJ0qRlyyGXF6T4IRw3HgPuMsT9HR8dqxdwTzyAfbAwT1E8/czv27H0KQyO70dTQimCggfZWCfu6XmJSvelcCw/IMDHuQDTG6ENgrkdKwmD6hf+0rQzmugDo7R8oiEyiA9OxAaCoHKcSeN6+AWb5ej1ZiUwSqjrdaqKQoUpzYDsOwWQjNTKEtQ8/hD2bXsTMqS1omDkf6UgLYq0tCOzrxt03/QD33nkjnGwvWukxawlUMplERyGGEB0MPSk3UrDQW4qhYeEpOPuq92LaohU8HwKorvdseALP3v0zWHs3IGZbWHD8GgxFpqGQTaJAFRlsmUIbsxPNtAsjjR2UxjMRaFzK81G0tTejlCvQeZJUDCJWjKAhFUQjpqF16ekcTBaGN9F+TT2ASNMe5J0RBP2z0NF2olm+tWvPi+ylAehNDyVHYHZV8cHDIZBxGPhHwBgBx3/jrwsZD/w3Qah45F2bGMyVg4ZDB6DSHSlVDOK6szP1dZ0FdYP5kRvmMUM2OBgMoa9/AE8//TT8sUbMmDsfI309+OGXvozdmzejiRJSfmgppXfABGCFwnQagJQdwUApCCfeijMvfRNWn30OIrEIu7mAvp1b8ei9t2PruscJvDwysRH0hy20rToDXVFK29ZWzJy3HM36ytKc89A+62w0zTofbbPOwtIZi9DRuQiz58zB6PBeDA9sZrmjVKcl9z3UgSY0zF0JBC30Da1Hd2ajeavHaNqHzs6VaGxspzrei3176WUH6ISYDyMSfOrcA9Hh9E85jQFaebu/cvYLwElUO301HUSe/76RGuU1zN2WKAX12lyL0jFOEPrzBQO8Rr16t5DFvpe20U6Mwp8p8JqP3jFVWyCCHNXtCFXrnnwQJ1x0Ba752CewZOVJBAg95mQvHvn1Tbj3599FqmsrGv1phIsJhOjABPTQEAHURCzY+RSs3AidjFFCI0OpPGwma/zFLL31DFXyNErWVqR9VM9FrWoJI5XNoRSjg5HvoXB9GbFoI+YsfSNmzb8C+dIKLDruSkybcaKxSIdH+5DLjtDcoJ1KDew/0BTMa5ReHQlYkUfd2ZlRqb+Jv3CQxn82C5tqVE5Egftzli7FnMWLkE2O4Nlf34tG2zbf6NBILVKNjdB2HCBw5y1Ygiuv+zDmLT+J0omOQj6HLRvX4dc/uxGDu7aiwZdDtJRFzE/QGZVPUFtNWHrCGZRc7djz1N147v6bqfofx9bNz6Drhd9g5+YHsWPTE+jbvRPNc09BnmUO9myBf3Qbijl6yoE4cvSUHQJ1OJXBlCmLYPlnoqNjBo6bvxrtzQvpMMVRKoxiw7N3sX1D3B+mFJRDIwlUadQcJSp3gicBXV6XT1ZR/RKwPnptSUC13gtl0ptQg3r/Cx0TH6VfTN6pj2AJKg6Nft1jJTD1kI6etU1ksgg3t+Ct77sWV7//OjS2thtw7nrpJdz8g2/hkV/dhkCyHy1WjvYanRQfZZGj51GoIQtRhLMBxLIltBNCHZRqsZGtaE5uRGvqabSmH0dr5hE05J6gB0tTIKQ7G1HGjFBCh2Hltew+Ts87gGA4hczwC3j64Z8j1b/HLLb1ZalkaYsOdu/Ck4/9im3rYTsoMdmekk8Lw/73kVX50IoXDkhHgwuHkYfgZF4ZodFWYSBrpCo7v2WxMdyhemQrzJNo/jAtOTocWqWSKxVQ0qQu0/7Rn/4JFq84kUZ/M1WpD7/56f/gTnrI+a7d5r5sG9VrjOo2ouctqPr0GGWmZKMvUEB3IIt0g41RSsVsgPnpabhSmJI1xvJbYRU7YPuaEbITiARpZBZT8LFimRxtT6p88wmxvNR4HpEi65R4Fhue/Fusf+SLeOHJr+LJB/8VG9d/l3GfQyQySPAmaTLoAajy64E1j1kVJvQfB9lB+7CKxnhJUkr39R2H0UkTqHZ6rywvvIYkIBlkJJ8b5I6MC0QyzKimcmCH6yXkRYotrSM0IGTI07HI5TNUly8iHrLxyP334Rv/8g/YuvYhNNEjafQVXK9YCxLYkXrBuXlXoFZXU7Kmg0DaJpiCzNP2mSVi8NvI0rYM2MwhHyFI9PB7E6vYatYm+v052n3DyLIueTsHf5DAY11CeRvBYgxhgqqhNABnaCfSfVvgS3MQ2IMI+oY04UQJTtDR9nO/gVy7UytaPhZeK/TaASC5Wr5fweCCTx0yxnQDQq0WoYTRyKLK0gjTtJni6X3OeSeHeXM6cfftt+Ir//SPuP+222ClhtFEUIU1E8jrNiWk+US/VsYwY9lrejbYrHBnSYK+bocGCAjdcSkyTYCSNUMTgDuM68eIVGlsAWJxPXKZRUtbB5xIBzJ0jLK+DDNLw9LqCSM5Qwg6cYRKVO90VvTYuha2+rUim6ra3EPWXRAzD1h7McI4EyrCa4QMW18LRIFtpl0UXBi4fKZWo3Rwt7qnK7BpfUaQQNBP6ZiIcR2CBkgO9KE4PIRiby/0kSx5ynpvtJ4w09v0HapdTdEkaE9SsHFfq6I1vZxHjBiI50poyDuIM26Y3m6QkjMSIhgp2YqBDHL+DFafdxZOu+AaZOgxy+lZvPRMnH7xB2F3LEBCK6dYXkiLVfVRHL2mrTQThUI7bT694JKevD5wU2IoRglCqvaizTbpJSGsQA3SnF11eK3QqwfAwxilxNEE8qSgAWFF0Nux7JKexaBdyHjeMx1yJpDJoIH2YjCdRqsqQSBphV2BwCtQnWaYYpjSzG6IwaEdmZa0sokaK8t8cwYIemJO75/WKuccpdaIY2PEF0dXLoI5p1yAeQzZYIR2mx6HCmI0QZUcWoPj17wDje0LCTiqbydJtdyHdGgfVftu5KNdcGLdKIS7CPweSu40683603nxF+jASBqqwTVobMlVxTIsDdnXAh0eAA8CHl32gkcHSVIHyR6jCjJqSFu3hDF5KJCpOcSK7D47IvlXRFIvI2LMMCVOlMotQunmK+hur0PQUdUW0pSCeYQ0nWNFMFgMEUDn4p0f+UucfPZlyOtxx4IeNqcUolSVE0PMsfykWR2do3SyCY5mglav45255Ax0DaeQ3nkf1v307/H0zV/E84/8GMPOKHyN7WiaMR9FO8I8AgQ0vWFJXKpz0x7TJKlb27TKVbtU7WqzbAkDKrfdlaHWT6uraYFMCC4mJ6c32qXyx8gmqrk6HkRjcSp+bsbVQV676kxDmXxz3+al4C4p88LhAfAgVFnpysp7JF6bIHVUJ7k2nqYjBD4ldBcPmKaa/MoA5H4oGED/QA86Wptx+oXnUtJQqiX16KQfKapaf5jqjxJxuJhBKB5FIpMmUB3kwxG85yN/jCve939gNU/BqnMuQrShzazV81GVMgrtQpZKnoaC9GCD+qyDjQCdleZCBu1N7bDj7Yi1tmLLs/dgenEvWrPbMLDrCQxl9iJTzKNtWqesTcJfb6AJEvx6YSY7wth7RDYlXol2oTrOPOVGyeuugi53rNe/lUGNNl5rRagRzwzU6vPaCHCVQRe4rSSTq0lTvlYZJpFi67x5ppBbgVCLV10wVobDB6DKOBp0FPJxsyB7CSqpn+F9veiMN9PTDeGPPv4n+KO//nMcd+4a7KXES8RCGCzRedCbfgJBbBlNID9tOlZcdD4+8qlPYPqC6fDRlhsY2IGf3vQtpPK9tNWScEJan2chFAgLNmYBg+7CBIKUiswvmU/TfqRE9efhEPD5tuPwUiKITGwG7b6QAT+cAlMWjS1qMQ2M/Sn5fIR0BDysiZ9axHhHq8sr6ZhIwFeSPP7J8zVbqsiH77kXn/rwDRjtHUBzSxzTFs7FRz/z1/jAJz+BffRKk5Ew+qmGB3IFNM07Du+94eO46Iqr0RCLoS0SNJPR3/jS32Hg5RcRoQTKZfU51wwlp5wEqnaLUo/iQC8sMl+btC0EIhaSyT5kU730iNPoPOUSYPpy7BgpYcnKUzG7cxraGsMY6NpFaSrPOWDuvGhhxStG5FG1tNO5SjIgK4PNA5wkX/3gOzSYHpPngg+tCmU6WJG8XqtaMrxFps5Sw8YIp4NQcHDHHb/Enu5udM6eg2Asiub2Dlz0xssogyx09Q/ijW++Aldf8wE0NXeYzzVsX/8cbvnOd/Di44+jg2ran82gRG84aFMF0zMdzVOi+UM46dTTEYpEsXvbi+h5eStiQY1k2pv5IkKxBsyYvQC+hk4snDUdJ69Ygdmz5xKkQaQH9mDHugcRzPTS/qOXzbw0xzfxHoca6QWP3GPZdpO4y0PX6aiPKsE3FsplmZy565VQfSxS/PrIrbPZM+XUTvv7A0DRgYo1DSjvV5BXV209Faz9nF7LQVDt3bUHd91xp/GKV5xwEuNYWLh4CS678kp0zJ6FbKZIAEXww699Hff8/OcI0Dtu9FM66eVFVNE+fxgFeh19iRzSdB46COZVp50Ofaq/i+Ab3LeTeeeNao3Fm7B101aEQjFMW7AEjbTdGgjOhrCNwd5uPHrP7cj278TURhtDw0NApJG2qLH2TBtcUnu84JF7PAmA5d16AWhyVFzxbEIoX1Qok8max5U1Ex0YG5WxxzNUGreoyWmP7LFMj6qiH4JvMZn2U1HTOHkudZAWr2qRqLxMYpJgdJBjT0+dNRuXvPUqLF19CjLshyTtrwZfFDd+9/u47447MKMxjpg6iOo5RSDqzQrR9iloZ7qFxx+PafNn0ylpQj7roCkax0N33oq199+FVoLMpip2SiF6xSEkfBEUOo/D4mlN8KWHqZYT2N3dT9WbRbiUQqikT8eWKE1ph5Lsoh5h8kht90KZXOuff+5Eu3vO3Yjq7S8T6yBg9bIdczi8fbOjPCaXNV5+Zf/I6aBHfxA6OgAUVSQ5IgCSai/7VusnVbUm6a6FZi38Rcu9yV+UdGQIBDBQyKF59kx85C8/gfa509Hd1YeGaAwvrt+Ar33lK8gReHGq0fkLF+GU087CnMXLECDYhhOjlFQZNMcbKfV6sP7Jp7D5mbVI9e1F1HIoBSl9izaKjhZm2RiN0lnRIwS091xnJUwW0XMvyQfWFzf1lIBW8Oh5kkMEYBUbjhSAldmZ/XJx+ueBz4ujlypVk1t+VaVecQCKysmOGIBe+ROqwWrWCUDdGZG60vRaQCCkJLSoVrO055yQTa+0YCTg2Reej3PfeAGa2tqQzeWQSKSwectLmDFzFpqb2+AnaDJZes7JJL3iAeza8jw2rVuP/j37KNlyCDGPAG25AAFobs9pKqXgh54Tz4XcrzPJDNACVKMmGUctUB+6k+a8TuDqS+7jpEZ7oUweAMnZMQlYQUcLgGbLSN7W/POOy3QMAKg3pE7M9LABKGLSowZA0diuqlndyNqkJAKgvqBJLhjwKaQzWdi2DYuSMEcwymkZCRRwydVvwdve/R7s6u6h6tar2Ki+ybzhgT6sffRxhkcxpEWudGSKqSyChRJCQpBVQp4AJO5oK9IT1puwKH59ehOqL03dSvvRITCZp55uE5l3Q8vt0N0U7rlS0Vwqk2rvhTKp0xUqVXAFHQ0AmlxVjLYiRWa+3rG2OlUbgOWdCXRIADS77oZ0JABUZjXqeEhUs3wxvk4A6mElTUwXyOssRZNeGF4k4yWRfLTfdEckZgVRSmcxajsYcvLomDUXV13zHsRaWvDips14/tl12PHC87BSo2jTyyspIXN6+wGlqU0AakmVLxLAKNVpOlCivRhgrq7KD5jHNFMEZ4j2KL1py886FQx4JPUc1UNT2KUst+YudbnmIrXdC6QxhjIcSwDy4oScdcx8K88p/WQA6o5L9TlRnQBcttRTwbUyGafJzd4/STgcOLcD0/4AqF91xjU9QFNZxmZcdbjq49VfyxO0uFTLrcRMrRHM0kZTvByBo8+16n17ekuB2Oc3KlIykdKOQNL9WJWouy/KtyBQUaqVGMy9WF0n+M1KGU0+85xuUviYh1t3xjVble9KRXX0GLkXx7cV5J5xWzLhckV677wGYDWZaKxPNSnNpNgm7ni+Hpl3W0+g/QHQzdd9kF5esDkgL9SL4/ErACiqnZFIkWrwpCZ5GdYZfRLVapA78idXtRYAazJ0f8TIimu+qqnFnQSmPiAjEFaTcW7K+9UkmeY6T2I2/9ddgSo6QDrTZO96ZRvLTps5dnfLAKzKjBWrzdvyTiUpbnl3nHSm8mw5/xpxTelkgoaryhQQjUQtA9ADYVXvVVX4COno5lZFpoXu7pGQ91lXh1JQW9mItcB3zOkotWd/dPSzPjo5ThYfR7mqx5CnLqkALxwmSXVqZHpL3B25sa8EHYW610NHP/ujl2MNAIqObpVfAR675BV0KIUZVeWqYFdVUApSBdckRpVqrRVEZr+83S/pmheOMR3tYtz8jCU+IYiqz3nnD0b7AaCo3izqp5o5emZFZTgaVMmJAzVFdgl/Ap6koD5QuD+qVVUviJFmvwzoMaq3HvWSV6C3Ke9Xk7Hr2KYJ4YiJnGI29QTVSxuvfqbpNdp/AACKjgbHJlJ1P8h8rf4dE/IKrgqSfCKBz7uPvD8bsFLijQX+mEozJPRSeMIs09JS/HIoq/X9BZVbP3kcUu+6wexXkHJTkNHvPhszHtS2w6dyPZVHVfDKrAyiCS+vZDtd2TmRDgJA0eRER4MqK/qqkleRIw2vMh3bahy7nOsAoOjYNe/YMu5/Px1b/h373qkTgB69lpt6bKisYCaQVPMrQce2mNq5e/10sFCTMTXoEAEoMtkfgA52/cA01oBatL9G6fwBG3wwbtTHLc/imhBY2YnnvL0D0+RYlakrp2oriIWNGfrlmNU0zr9KLnpxJ8d3yTs/nlqFeLVwz5a3jFpXMJlUEM/VopoAtCz3CaZSUZ8ClZFuI5HUjfwQQmGbdnYWhWIOIX2TTZ+m111Q85hiBiV9tsrWy82AfFH3PllEwA9/0NYiJPNAjz7RqmXsensBj5iWzgDjqJKuUe5Dgca85bd5PmBC0TziyLwDOs88GbfIHAtFvT0+zWOW7cvzOM88mD+N44Je00HnQO+E8Qf0WSs/6x9i3KKbT6CAXNZhvwZR9L7BK2NZDoWeTmMwjDcPB+mjMiFz7A869JYTTKPMxUI9ZjnK84yr53l9jTwTgB0Mm/vAtq1l/GxXKc99LXQQ45kTT8kJcu8QhJmf33yMOp/rQSHfw3qkmZcfPvJhKNGLTCmBgpWBnvPTd439oShYffNMStHSa+fIdYttYwEO04o3Dh2dgl7C6Q+zjrptqHvkOeZFvtlqIh2FgoVsahjZbC9y+QGxgGWHYQea2Wa99cGmQ6EJej2tx2sVQSTnTa9G0eOwXpDTY+KoTxW0XyP4Ozomr4gWaTLW3J4yHVIC20pA6U2d7kPaulbQihKf+y0L98vd6gxeNR91JihZCfOQNPMoak0cgaQVKmaViojndV2AKeSVJ8FG5skLFW5dIClHbgXckr6v5nfrxrx090Kdqzh6jYY6S89riOl6VsP9npqYz3JZluKrziojm9X31iyE7BicgurOdhIgykurZcQ1gc24t+Un8UoEpF/vCcwMsFzWSatfyIdkaoD1zTCt6hBk+0sac6ZMrYIxbWCd9DnWQq7AXFUn9b7K0DDKsV0h05ZMegAf+9h1uOzyS1jHIl7atsuAIBxTX+gBenaaFSJvbeSYV5ADu8TzKtsFAfmjbtGbG8xiAF1XX2mg644P20jehkIh1lPpWFHGv+LNF+Ld774KCxfNx+OPPoug3WCug2DNF7II6MlA5ud9UcAjNo15UHITTWa/HMbJPRIvDT8NjccSYmpQyTDDfI+WoytAaTU0vA/f+NaXccedP8EPfvh1xsmxQQKWRnUQkVAcwUCMFY0gSsmoG/IRMlwFaBUKuWfeYqXjkJ6xEPh42l1G76Nk0qoRLUZmZ5Ankm/5vNuphTzHPEGiG+ECVyabYedkYGvpFPmhDgkGo5QgHCRkmjq7oIfQmbeAKCDotb5646mkttIIBD5Kr2w2STAL4AJhAZGY8swygoCnMSoqM8uXxV/8xQ24+55bcdttP8av7roFN930Pdz2sx/h/PNPRyrdz/qPEHyUzHq9B9NpADjqaP6ymSzzsAy/HEpPgSKfz7LtvEoJpi9j+iwHZ5y5GmeedRpmz+5kmqTpg2gkaBa22gRBiAOkkM1x1LF9Agm3Zp+A1DYkPkuDgdI0r4UVksoc2BykkshqVi5DfkjTsV+0JOyEE5bhDW84EyevPMF9Kz+BVizqQ4pUYGY8Smh4/Dh6tB8AusDQyApQrSSTw3jTm8/FsuUzeZwlY9pwyqrlSPG8GcNkppapK/iKATItRUBoIaa+mctR6+QQ0ZuqCCg1TOdLBIgAJ6YWC5SqPNZ1ga8oELLBer7X0RNkPGczska48ovHwmQegclr+r6aWzbrat4RqPu5foKf+8zDErcJSL1HUANheGiQaWyOcKpiSpYg21cs6htsrKsvh1RqiBJQzNZI15bRyCbTTU4S7a0RhLXYlBLv5R0bCewhdEyN44tf+Ft85tN/znpx0DCvYIjSgpJDbdTzI5KE4ZC+BWcRpHkjjYM8Vudms4PMO4FwmO2kZJWG0ae5LIJRawaj+h5dOoFYRM8NE9wcfEHmE6ZgoJgwL03nLtvHtjJf8VRfkTIPfpOheQ4Gs7qHA10tER/0fWR9ETREnurpPId11UA3oNNgJC+0Ck1mQyDAASheanuUST1a3q0kV1T7WWCRNpWf9tIfvPVqI+5HR4cQJQDe97730F5IUa2UDOPyZGAiOYAdO19k6hR6urZhaHAPMql+pJO9GB7ci8RoF8/tRX/fThabwED/HubtZ35RpDnSR0b7sa/rZTI/g8HhHiQSAwTECMuwKF0SjDOCPqbZu28r+gZ2USp3YfOW58wASacSpjMLTgpDQ/tM6O3bhZGRXiRSfex4ATyBluYohoe7sWvnFgIhZa6nM8MYGOxCJjeCdG6Y7af0pN0nALqrcMR4ASdrBqWA9eDv7selF1+I1SefhDt+cStBUMIlF1+AzpnTCXCCgSAs5Ecxonr07DDScZj7Iyw7SJ75bQ5WSj19Xt9hPH2mf3iom7zZxzZkCIg086G9SHBpoI8M9mKgZw/LThJgKfT1vIzRkW40NRJS5H1SNmJqkCp8CP09uwx4U0kONpYlyW4HBewMpewg+nt3Ydf2LeyTPsO7INErE8S8V5HpINuTcVPszwHWZ9eu7TQzRgjkykcHjg7JSCjTOLo1Sl07ylVDnTOnYMWJK7Fn11587u/+Hv/2//6NovpEzJ8/k40ZZbw0R1oen/7Mn9KGmIe77rwdc2bPwbnnnI1wJIKBgX5881vfxLJlS3DWWWdh6tSp6O3twT33/A7f/vbNRuSvPOl4vOvd78TChfPQ1NRkyt+7Zw9+/vNf4Be/uB2NjTF8/BMfY12mEWi6ZcYRSfuG1hGBncGnP/1pDBNMs2ZNw0dv+BSWL19K1RYnE1N47JEn8LWvf4MMZMdSvV566bl4z3vejSeefBw7tu/EW666gvlOpdGewdPrNuDzf//P5AFVlbGhJOP1X/ZimOxw38qqbWtzKxobWnHrz27Fm664ALFYE80Q2qCUcLn8CObNnY1rr7sWK046kXwIo598uOee3+Dr3/gO29hKUI5iydLZuP76/4ulx60hwB2sf+5JRCjpJB0d2hSSTAsWzMVffPLzBGcP/ukf/wUf+sP/gzVrzsBXvvKfWPv045g7dwoFwsdx3HGLOcCmoK93EE8//yy++4MfEpgEEx2N0dEB1qcT77nmeiw+bhEBGSLfsvjZTbfi7jvvI4gJUtqINm3HXGYUqdFBfOADH8Qpp60wC2i/+72f4Km1LyAkKVxBRyoTKQE9UlZudrKfpO1krGo0rlqzgqPCh+59g7j31/cRGF1GPF/2xosZSTZblpJkL+YvnIqly2bir/7qT/GOd15J+ZFBc3MYU6c14ctf/jwZfQ2PZfyOYvr0FvzRR9+Hzs5pPNeAZUuXEBgnm5H74osbjHRatmwO/vAPr0VHewvLKOHUNScToLMI8pk4+ZQlNAU6MHdeJ044cQmlWi/a2qK4+Wffw7nnrkF7exOlwSDPNeDt77wYP7nxe8xDTkYGLS0RzGGnffCD78AXv/jnmD6tg50exDRuz3/DObjiyjfR4aF0Yvu16FSLVfWG0kyGKlHfAJGpRUEh+6pAh+MjH7mBNloD9u3t5iDtpuQKoHN6E/7nv7+FCy88E32UxA89eDcHRweuee/bcAkHQJKaId4QwBf+4TNYs/pktLYEjXmwfNkyDoZZRkUL+no7vtTrGactxwXnn4Mbb/w+3v2ey1nXFjQ2BSnB+tmGT2PNqSdizpxp2LfvZQKyDVdecT7+5q/+DPt2b2Gd05g6JY7/+Pcv4YILzmQ/zSBfmjB/3gyaVUuQGBllI/UFUdmmWeTSI7jiTRfjPe+8mrbhAqxd+yQeeeQR1kZOluzaicGM0MOkCgCOkwtD1xYZHOzG6aevotoAnl67gQwJ4ZGHH8XgQBKrVq8yUkViPkARbwWysGkfPf3sWpx/4Xm4+q1vwS23/hTNrY3YtXcnTjvzNFx86UX4+y98lp1KO4PqpaOjjeAdxl2/vgNnnHEpO/8yXPeBd+O6666hGh3GlCkNDC0cwaN429veyXA13vzmSwme97J+OUSjNn74w+9zv4Cr/uBy5pljnXvwAUqeyy97Iz52w4fRs6+fecTpKJxJtUOAUP0pDPTvxRsv/QNc9ZarcM0176F50G+kT0NjnO0XV8c5S4FHqRQxoHMcHy679Ao8/thaPProA1i16lSCbBCf/ORfI0XjPkmpe+nF51GqpPHQA/fibW+9Ap/4xB9Tsn4GDfEQrmQbR0f68ZYrL8d0aoNSrohr3n09PviB6/He976fUnkHByKZo+Ip6WU/UvOz3Bw2bd7EAf73+NKX/gmPPfYQefVezOAgjsfDuPba9+H9DH/7t5+nBBvFSScch3PPOhWJ4X5c+753oonmRzIxjI9+9Aa8+YorcNmbr8IP//vHBGM77UKLEnGEheSwbMkiXPvedxtT4uc/u41a6ltobG5i306UflUsOiwiACfnIPWTpxqRRzp9xlSsPPlEjiLg/vvvMY7Cvff8mgzyYenixRy5Lca7MqvL6VVqPi2fK9F+y9Dx9VPNFKgaU8zLhz17uqmKGrD1pZ0s1WZHOeYF4w0NUXbIEEHdQ2mwkqC4hNJtujLk9QJVG1Ue845H2tHXPcIyLHz5n/8fy+6gRP4tvvPN77EhAZx4/Im0sYaw/aWXsfaJZ9HeMg0P/fZRqq4R2jJpHL/0eIMkOU1iuED98vaX0RBrxMvbdtCOZJ3ZllCIrh9ND9l/Ho/lhDhqJDmmmYue/m48Scnwq7vuQ1f3XjS1NOGr//WflMizzQheOH8Ro2paJIC//uTf4ON/8mc0W1bRBstjZudsgryVx6uNJnl+wya88NwWSlGaHnopoeZVLXkANAP4k/Ols/oq589u+SXuuft3uP++h8xD9eeecyEBGsDG57fiOebTShX8JNseoudrs62nrVqDIE2JNRwk2VSWoH2KAuQJyInWq+MGh+UQ+tivcnYidPCi+MLnP48Z0zuwbt2z+BrbNH06zR7mJ5fH0FEAnkc1JaCWJAlgWdpml19+Ke2vOPfzuOGG6yltvoOP/NH1tMP0/Vo/R/olFOEyWmmPlfQKszDrxg60wpQyMXp4mtKJ8VyAo7TNNFqToll6rtGoRQPYpp2WxEknnYD7fnMvvvrV/8CnPvnn+McvfoEGdpwCQNMqmsbwY7A/g2lT5uDr//VtSpJW3Hv3b/FXn/oMPewmdmScIzbMujZSsulD1CEyNohYtA3JUXrL/gjza2c+AXaoOwcnDzpIu87hoNGcWTQSozT3UcrJAXHBJxL4TKAnqHkweYNPPvUYPnj9dfjc5z+Ld7zrHdj44vPmnTBvf8fbqAb3sDMb6HxlseL4lTj37PPx5je9BatOXoOuvb1Yv24jB4GPpsV0Oin0v1N5eu1sK7V+gUXnKRH1PmlNoJdYCcFP3rQqlMvSc7cbaB5FqP7C1CCdvOBjmxPka5ReOevJtqc46PVc9MxpvM68bAJa2qunh14+eaG+yGbpnZfYX+SF7NpkIompHVNwPO3nXDaPxx99hGZMmsIkaWzucCR61IDnURmAHF/K2GQuCZZlI/0cDRG8i8x1ijlWNoU1p63G2eeeTfvrFANSza/9wVvfSjtRE6JhI/l050S2kh2IGGYWSxZMvckMPaKo0Z3JFAg+2mia+aCU6aYE+djHPmZU7Y03/ohOwZV0Et7F6ykDcqkjTXTrnct/+Rd/iSWLl2Dziy8Zg7ytVaCyWHaBgRKVUqGlhUBnW7QcaGhoiMxuMMc9Pf3uPCAPZIQrjb6OnuPg0seqsxQLkvRmuock2Ikfkj4KmgiWySPnzA7atG3bWFacknwEe/fuMedm0EmS/ZiitInQCbrllltpj12Fd73zGrz9re9meBc+9+m/o70Vw/DAKDsetM+mME86LgSwpps031mQqtecpqaoKHlVf033BQlU8VFvUZU03bOnx/Rbe/sU8kqfo9AjoIxnRynNfdhGbaD3Guqcw/5pa25DmNdSoyk0ki9GxRtvnw3jwNz60g78Fx22ME2ba699P0499VQzZ6gbOZppcDlRm1xueaE8aMthf2TJmzOBByYqWxoiI/OUfvPmzaLH2srzOXzqb/4Op595Kd5wwVU465zL8O3v/giBsI2ZczuwctViZPIDrL+clyIZIQOd4KHj4GNnqPFsPhsrua+XQVKdFTIwd8Vou5XofTY2hAlYB9u3beVxETGiVmrVSAVKBJ8vhc9/8cN0ME5ELwH7//3zP6ODhnRHexCzZsaYZ47q9gE0x+jQLFuECy5ZiVyxF9dd/w7MmNUGalkjtcIxAo+GtsBk2SU6A0Nmzs6VgpIGrCL/6dZZoZBmvVk/9rzerhC2ySd2qi9PyRpowowprVTzYZx39qk4YfGJaAjGsPXFFyiVmvHMhueQYz4Xv/FSnHDSCpoRUWNqzJ3dSRtrAZxsGo88cD/0qraFi2fjojeeglhDmjxvR2tDA1WobexuH3kKfZCb9WNNUAroFSCOqb/s79tvu0lTdFixfD7OOnU5fIV+XH7xKbTJg8iwro8+/jjh5eDxxx+mNvDhkgvOw0XnnYa2Bg7UaAILZ1vIlgaRYV3zvgbkrFb8x7e/i98+/ij8ET8+8Wf/F/M6Z8KXGYE/q3lf/SST3eDKMM0u1goEfsW+iUusqdeNVBfmdTxu6xCCHAlStwWK/3POeYM4QKM+QS/ucQLDb+wOqdWf//yXBlgC25VXXm2kmm5DSeJJXfrM7R89YRY2UkU2hAx4SULdqtJLH0X6RH5b+zRs3bqd0smPD33oBvzHf3wN3/rWDyjB3Ns/jU1txgE4/fTTkeZobGhsw1e+8l/47nd/SCP6R/je939IT7oVP7/1F3j66e1obmnGl778r6zjbfiTP/0zNDTRcXp0HR574imWV2ReUW7JFiuENFVNwA6Z98fYmmZhXd1bWGy6eEXGqP5imvgSjlBVlgI49/yL8OMbb8Z3v/8/+Nd/+090zpqF7t5hHv83WmnU/+KOO9HbP4COadPwjW9/x9Tzxz/5Kb729W/ive+7zjgrP7rxJ1TdO0wbP/u5z+MHP/hvfPU/v4Y426f7r3qs02EH6R6uqmSqRWnmp5STFIxE47j1tjuxbv1zxi793N/9A773gx/ij//4TxGjH/UQncXnNm6it92I//raN9HVNcg0AXzuc5/Bd77zfXz7W9/BW9/+dtrCCUpv3dNn9lLt5Ms/fOGfkCOPJFn//d+/ilZqmmg0ZuLUR2JaZagmIY68bp+y5LMmgrjtxeM27+TZ4adRjBdx7/33Yf2GzQSIvvgt2y2Gnq4eA5ze7iE6GQm8sHEzpk+bQWciiY0bX8KGDRuZkYWW1jaqizi2bHmJo3AtiwlQbbVSss7Ayy/3GaN4aGQU2+n5tXXMQJScK1La/M+PfoIdL+8hMIC7774XCXqWc+fNQW/PAHbv3ofddGj27uvBzp17sWdvNx586DEOghxBdztHv81ObKJKK6Kfau6WW+6gZ/hZ5t1oQNRGOydG9bN5y1Y89cTzZmBpmmX+woV0KIbxxFNPs+xdrH/AqENzv5RMkUTv6GhnnQrYuWs3AdfHeLvx0raduOnmX+Azn/sCAaPbe+698ltuvY1STAs4aJtRlQ4NJ7Brz1789KZb0Nc/ZM4/9MjDRv37Cf5R2ow/vvEm1msH7bEcnn5mA3bs3GPetj+lYz5e3tWPhx9+3ORTdOjwUUhosN13371msIao1jWo9uzpwy0/vxvfIMAayIcsB5emje6nhihRSATsKDJ07nbv6cKdv7obXRw4U6ZOp4q36GVvxjPr1zE/m/EfwsyZ87GFajwaa8LaZ9YjQEFQHwlMHqAqSCqG5E7hcLt4+Vs0xiUGddpcNDetqRbzhRRHu5gJGuitZtQVaYtJIihONiPng0lpD+ouie5/uunDJj99viCdzlCyuM/caoJbzo0Kl5fNZGZKI0QVqJvnsvlicdlkuo0kBqvT3Vtmuu3mp/qRTZhOZ831gFa4cKt6m091MV/doM+X0jQJklTLUZNeQJTDoVUiOZoWktq6xVjIZ2H7GpHPsm42rzm8xrrqC5g+s5BB9RYA5RVTcmeSxsSgB2FUtLxl8UJOi6bFJVUFFtVHX9KMxaPUHgO0QWUPU4GK07oXq7jUBtIUus+eTA0jEqFtqvuyKodS2ixn576CezvNQZ71ClPqFfVdEmkQYxvSXg86tI8TbGuA7aTzVbCQyucQDGs1DtvFfmlubkR/fz9NgRhGRkYMH2UW6HUlQXrfyXSK/MgQxJqAl+ZyF31oFiJMhypH+1oaQh96rI/G8TRGYoCCAV8ZgAuPv9IFoCJ7IGQkAUJBHa97qsU8Rb9ce6oG2ej6indidJSMC7PxchbU+IABj+WTneWuLDErYKirNbEqz1lbLYkyYJVzwQ7WLT/d4tJWq1QEWNVTjZbHqiCm5GmTCcDKUw3IZGhzsoN0LEdCkllzcHT/jBGt9Br5iqPOVTzVXZ61Ol7Ok7/IjmeHa9rNoZVlrsu20EDhSQ0C4zWTL9IGpp6aHGZ6LYgQadVPmB70CDVBjFJWTg5KOcbVihyL6i1AAz5l2q0OVcfKY5fdqUUYsu5cvmn6S/ffBS7Wx5g4WgJVouRmueSLdC39YHrNBI+5/Si+jLLeJXreUXrVCdfbD9IBGxk2bVaf5ehYCqDuPegQ26XFBrrfzv5jPdRm3aseGZWalj1eMINadcqa++y0Kdk3IfZ3fVTGkkj88Kg2AEWumhEIdVGTnn5ZyPKQWDlNs7hAdRkuqaetbqybT8rzJ+fBXYum9WA0PJlOzPMKM/lohzanGCybs2g8XElZSV1N/6h+AqRbVzFAIDBLnfy6O6BGkWEElKSJG082pcCslR9kMkHi6B429zXFYOrNeCIBQgBk9UxOWoOnlSPGKSEL5BGqzbpoPEOlV2STh7Za5sR6E67yzL3BYEDFAaplYVK/RQJQcZXUjUfJShUiQLGZzItAMvmKVCZPGZ6Ui1R5zFeSUO3TkizjbfBY013qD73uQ7cWpRkkLDRNaWvdnxQRB6G6tCBAS4WV8xe5CyLc5Wo6JTtTbSgyA2k2ct+NWG6/NIH5BJhOEej1EdMaJk6MryxdcnuyAoBiRjmRIZ32gqh8nYdeDDc2T1ScE7kej7vnkVuwjr3IBppmYaV7rnzNBJGbuwmG+QKcd62STGYVpOMa+SgPc+hdc6+7A8tN4y05EtgVz4vhBTlWItdpE0i9wcU2mCTuQHTzMiirCB7pupCuvLQvqrzOI55Wnt5ZkwPL0fdJzAB2V5Kaa+ZT/uYt+qyPBohZSEuQm4UOqoNHylR/XpnalqEmkGtbUaKECzPnvhdEui4e1UEmKy/dOJn6V5B6v0xe5qq0gtsZ46R9BjFfHcR99+dS+erYceWeyMRUunLacZoYz610dcUFVS+el746nUfe+Vr5VFL5OjvVnWDWVm3zShNrFNw8dEZyz+RfHtVuvPGauWV7Z8r51wpmMBwsTCQ3T7cO42G85LF0Bjisd7mfJgTGGG9fZWq1q7K/y3mZIKq+fgAyYryOeGXyLRqTgJWkwiqwSXIr7pL3hiRTxfJJr6oiNc4946XglocmjpeA57Tnxi1Txe4YefmTsa7G8tIfgEz9KsvfH7ETKFUNHgy5O0ZKjI1UNw8dSasprukKbU00SUBKJ0ZT01whTck+VlcveMRERvq5ElDzrrKxRRNiyrshmWMl4UbLpcz6xpJsREluEdPqkQGThySrpGOQElCr13VHR+T1pVrm8UZU3k7QLO45r10uudf1f0J/VdIk0Cne5Ljjebpk2uMGZa1R5a7CcLeVI60iSLQb8a7Gu2HMdhqL5+3ruretOFcO42UwqA4TQq3ryo5b5jMequKZoPOMOyFeZXCvufVXe7w6qX7ljdkVSBS0N56/Llbm5x5XlK/4Jo0XymWOneNxeb+c3NB4XpVbL9/KPqngvzlmPPLFDW6c8fZ4Gq3y3HgwdeF5szU8Lp+bwOdyGdXklXmYJF+PvzJTmM/YnRGP6ZVhQjzuqELamn2PvBMKbKyJqAaIvPMuufl5DazerwwT05mz3qnK0/ulysi1Eii/yhLH99x2itxaeOlNPU0HKY5bb3Ot3F6XxnIZD5VSxQzc8q+cTj83/XgYBwXTmnrqrAsmN22Za7rkDShD5kSN4JHy96h8/kBRKkmgUzhCKs8DHiapDjVqWCVlDbnnJl8o83MC6T17htkVpFKOvLk1SG73JGLpNepVqwYTVZVLiqU1hPWQaRe992qSJz2ZlKebr6kJd7WVpyyq5KUEiBe3kqrrKrLooddD8sYnc6A2ueXU4u1EOniM1+mYkoFJGcSV4feKjpK0q0WvA/D3gH4vAeiB7hgBz6PXAfhqUw3wvaoAfAVAV0mvA/B1esWk3WQC/n+yUHtexcg7zQAAAABJRU5ErkJggg==;" vertex="1" parent="1">
                    <mxGeometry x="559" y="871" width="135.05" height="92" as="geometry"/>
                </mxCell>
                <mxCell id="45" value="" style="sketch=0;pointerEvents=1;shadow=0;dashed=0;html=1;strokeColor=none;fillColor=#005F4B;labelPosition=center;verticalLabelPosition=bottom;verticalAlign=top;align=center;outlineConnect=0;shape=mxgraph.veeam2.role;fontColor=#1A1A1A;" vertex="1" parent="1">
                    <mxGeometry x="385" y="867" width="28.000000000000004" height="39" as="geometry"/>
                </mxCell>
                <mxCell id="47" style="edgeStyle=none;html=1;strokeColor=#333333;fontColor=#1A1A1A;" edge="1" parent="1" source="46" target="43">
                    <mxGeometry relative="1" as="geometry">
                        <Array as="points">
                            <mxPoint x="630" y="1012"/>
                        </Array>
                    </mxGeometry>
                </mxCell>
                <mxCell id="46" value="" style="sketch=0;points=[[0,0,0],[0.25,0,0],[0.5,0,0],[0.75,0,0],[1,0,0],[0,1,0],[0.25,1,0],[0.5,1,0],[0.75,1,0],[1,1,0],[0,0.25,0],[0,0.5,0],[0,0.75,0],[1,0.25,0],[1,0.5,0],[1,0.75,0]];outlineConnect=0;fontColor=#232F3E;gradientColor=#60A337;gradientDirection=north;fillColor=#277116;strokeColor=#ffffff;dashed=0;verticalLabelPosition=bottom;verticalAlign=top;align=center;html=1;fontSize=12;fontStyle=0;aspect=fixed;shape=mxgraph.aws4.resourceIcon;resIcon=mxgraph.aws4.s3;" vertex="1" parent="1">
                    <mxGeometry x="882" y="971" width="78" height="78" as="geometry"/>
                </mxCell>
                <mxCell id="49" value="&lt;b&gt;Game Context Files&lt;/b&gt;" style="text;html=1;align=center;verticalAlign=middle;resizable=0;points=[];autosize=1;strokeColor=none;fillColor=none;fontColor=#1A1A1A;" vertex="1" parent="1">
                    <mxGeometry x="856" y="1049" width="130" height="26" as="geometry"/>
                </mxCell>
                <mxCell id="50" value="" style="sketch=0;pointerEvents=1;shadow=0;dashed=0;html=1;strokeColor=none;fillColor=#005F4B;labelPosition=center;verticalLabelPosition=bottom;verticalAlign=top;align=center;outlineConnect=0;shape=mxgraph.veeam2.role;fontColor=#1A1A1A;" vertex="1" parent="1">
                    <mxGeometry x="738" y="955" width="28.000000000000004" height="39" as="geometry"/>
                </mxCell>
                <mxCell id="52" value="" style="edgeStyle=none;html=1;strokeColor=#333333;fontColor=#1A1A1A;endArrow=none;" edge="1" parent="1" source="38" target="51">
                    <mxGeometry relative="1" as="geometry">
                        <mxPoint x="311" y="920.5499613248014" as="sourcePoint"/>
                        <mxPoint x="559" y="917.7597215385697" as="targetPoint"/>
                    </mxGeometry>
                </mxCell>
                <mxCell id="51" value="&lt;b&gt;IAM Role&lt;/b&gt;" style="text;html=1;align=center;verticalAlign=middle;resizable=0;points=[];autosize=1;strokeColor=none;fillColor=none;fontColor=#1A1A1A;" vertex="1" parent="1">
                    <mxGeometry x="369" y="906" width="69" height="26" as="geometry"/>
                </mxCell>
                <mxCell id="53" value="&lt;b&gt;IAM Role&lt;/b&gt;" style="text;html=1;align=center;verticalAlign=middle;resizable=0;points=[];autosize=1;strokeColor=none;fillColor=none;fontColor=#1A1A1A;" vertex="1" parent="1">
                    <mxGeometry x="717.5" y="987" width="69" height="26" as="geometry"/>
                </mxCell>
                <mxCell id="55" value="&lt;b&gt;Valorant&amp;nbsp; Gamer&lt;/b&gt;" style="text;html=1;align=center;verticalAlign=middle;resizable=0;points=[];autosize=1;strokeColor=none;fillColor=none;fontColor=#1A1A1A;" vertex="1" parent="1">
                    <mxGeometry x="-552.5" y="711" width="110" height="26" as="geometry"/>
                </mxCell>
                <mxCell id="64" style="edgeStyle=none;html=1;strokeColor=#333333;fontColor=#1A1A1A;" edge="1" parent="1" source="56" target="38">
                    <mxGeometry relative="1" as="geometry">
                        <Array as="points">
                            <mxPoint x="271" y="1050"/>
                        </Array>
                    </mxGeometry>
                </mxCell>
                <mxCell id="56" value="Amazon ECR" style="sketch=0;outlineConnect=0;fontColor=#232F3E;gradientColor=none;strokeColor=#ffffff;fillColor=#232F3E;dashed=0;verticalLabelPosition=middle;verticalAlign=bottom;align=center;html=1;whiteSpace=wrap;fontSize=10;fontStyle=1;spacing=3;shape=mxgraph.aws4.productIcon;prIcon=mxgraph.aws4.ecr;" vertex="1" parent="1">
                    <mxGeometry x="443" y="1004" width="80" height="100" as="geometry"/>
                </mxCell>
                <mxCell id="62" style="edgeStyle=none;html=1;strokeColor=#333333;fontColor=#1A1A1A;" edge="1" parent="1" source="57" target="56">
                    <mxGeometry relative="1" as="geometry">
                        <mxPoint x="390.95001220703125" y="1242.4251302083335" as="targetPoint"/>
                        <Array as="points">
                            <mxPoint x="482" y="1208"/>
                        </Array>
                    </mxGeometry>
                </mxCell>
                <mxCell id="57" value="" style="verticalLabelPosition=bottom;html=1;verticalAlign=top;align=center;strokeColor=none;fillColor=#00BEF2;shape=mxgraph.azure.laptop;pointerEvents=1;fontColor=#1A1A1A;" vertex="1" parent="1">
                    <mxGeometry x="597" y="1193" width="50" height="30" as="geometry"/>
                </mxCell>
                <mxCell id="58" value="&lt;b&gt;Developers&lt;/b&gt;" style="text;html=1;align=center;verticalAlign=middle;resizable=0;points=[];autosize=1;strokeColor=none;fillColor=none;fontColor=#1A1A1A;" vertex="1" parent="1">
                    <mxGeometry x="585.03" y="1223" width="83" height="26" as="geometry"/>
                </mxCell>
                <mxCell id="63" value="" style="sketch=0;aspect=fixed;html=1;points=[];align=center;image;fontSize=12;image=img/lib/mscae/Docker.svg;fontColor=#1A1A1A;" vertex="1" parent="1">
                    <mxGeometry x="503" y="1204" width="50" height="41" as="geometry"/>
                </mxCell>
                <mxCell id="65" value="&lt;b&gt;Update to latest&lt;/b&gt;" style="text;html=1;align=center;verticalAlign=middle;resizable=0;points=[];autosize=1;strokeColor=none;fillColor=none;fontColor=#1A1A1A;" vertex="1" parent="1">
                    <mxGeometry x="262" y="1057" width="108" height="26" as="geometry"/>
                </mxCell>
                <mxCell id="67" value="&lt;b&gt;Tasks&lt;/b&gt;" style="text;html=1;align=center;verticalAlign=middle;resizable=0;points=[];autosize=1;strokeColor=none;fillColor=none;fontColor=#1A1A1A;" vertex="1" parent="1">
                    <mxGeometry x="300" y="1001" width="51" height="26" as="geometry"/>
                </mxCell>
                <mxCell id="69" value="&lt;b&gt;Meta-LLM powered&amp;nbsp; Agent&lt;/b&gt;" style="text;html=1;align=center;verticalAlign=middle;resizable=0;points=[];autosize=1;strokeColor=none;fillColor=none;fontColor=#1A1A1A;" vertex="1" parent="1">
                    <mxGeometry x="550.5" y="845" width="167" height="26" as="geometry"/>
                </mxCell>
                <mxCell id="70" value="&lt;b&gt;&lt;font style=&quot;font-size: 18px;&quot;&gt;Designed by : Jerry Monyelo&lt;/font&gt;&lt;/b&gt;" style="text;html=1;align=center;verticalAlign=middle;resizable=0;points=[];autosize=1;strokeColor=none;fillColor=none;fontColor=#1A1A1A;" vertex="1" parent="1">
                    <mxGeometry x="-562" y="1214" width="263" height="34" as="geometry"/>
                </mxCell>
            </root>
        </mxGraphModel>
    </diagram>
</mxfile>